<?xml version="1.0" standalone="no"?>
<!DOCTYPE svg PUBLIC "-//W3C//DTD SVG 20010904//EN"
 "http://www.w3.org/TR/2001/REC-SVG-20010904/DTD/svg10.dtd">
<svg version="1.0" xmlns="http://www.w3.org/2000/svg"
 width="512.000000pt" height="512.000000pt" viewBox="0 0 512.000000 512.000000"
 preserveAspectRatio="xMidYMid meet">
<metadata>
Created by potrace 1.11, written by Peter Selinger 2001-2013
</metadata>
<g transform="translate(0.000000,512.000000) scale(0.100000,-0.100000)"
fill="#000000" stroke="none">
<path d="M5029 5111 c8 -5 16 -17 17 -27 2 -9 9 -21 16 -25 10 -6 10 -15 1
-39 -11 -29 -3 -47 16 -36 4 3 7 -6 5 -20 -2 -25 -2 -25 17 -8 15 14 19 31 19
91 l0 73 -52 0 c-36 0 -48 -3 -39 -9z m64 -96 c-3 -9 -8 -14 -10 -11 -3 3 -2
9 2 15 9 16 15 13 8 -4z"/>
<path d="M5109 4938 c0 -7 -2 -21 -4 -30 -2 -10 1 -20 6 -24 5 -3 9 11 9 30 0
33 -9 52 -11 24z"/>
<path d="M2532 3217 c-9 -11 -10 -17 -2 -22 15 -9 23 -1 18 21 -3 15 -4 16
-16 1z"/>
<path d="M2597 3162 c-20 -22 -22 -42 -4 -42 11 0 37 39 37 55 0 11 -18 4 -33
-13z"/>
<path d="M3277 3141 c-17 -6 -17 -8 -3 -20 9 -7 13 -18 9 -23 -3 -6 0 -9 7 -6
8 2 16 10 18 18 3 8 0 10 -8 5 -9 -5 -10 -2 -5 14 3 11 5 21 3 20 -2 0 -11 -4
-21 -8z"/>
<path d="M3305 3086 c-18 -13 -18 -15 -2 -30 9 -10 17 -24 17 -32 0 -8 5 -14
10 -14 6 0 10 -9 10 -20 0 -11 3 -20 8 -20 4 0 13 -19 20 -42 8 -24 24 -65 36
-93 12 -27 29 -66 36 -85 7 -19 18 -41 23 -48 6 -7 12 -50 14 -95 6 -127 10
-145 41 -161 29 -14 47 -12 75 12 9 8 20 13 23 10 3 -3 7 -34 10 -69 5 -66 21
-129 32 -129 16 1 36 20 38 37 11 78 19 103 55 162 51 84 48 116 -19 206 -26
34 -52 71 -58 81 -22 36 -25 5 -5 -41 41 -93 19 -68 -29 32 -41 85 -64 118
-132 189 -52 55 -100 95 -130 109 -26 12 -45 25 -41 29 3 3 1 6 -6 6 -7 0 -9
5 -6 10 8 14 2 13 -20 -4z m392 -648 c-3 -8 -6 -5 -6 6 -1 11 2 17 5 13 3 -3
4 -12 1 -19z"/>
<path d="M1788 3054 c-8 -8 29 -44 45 -44 6 0 1 9 -12 19 l-25 19 25 5 24 4
-26 2 c-14 0 -28 -2 -31 -5z"/>
<path d="M1770 3010 c13 -24 13 -33 0 -25 -5 3 -10 2 -10 -4 0 -6 -7 -8 -15
-5 -8 4 -15 1 -15 -5 0 -6 -7 -11 -16 -11 -9 0 -14 -6 -11 -13 4 -10 -4 -14
-24 -14 -27 0 -79 -41 -79 -63 0 -5 -9 -14 -20 -20 -11 -6 -20 -16 -20 -23 0
-7 -9 -18 -20 -25 -11 -7 -20 -17 -20 -23 0 -6 -12 -26 -26 -45 -15 -19 -24
-37 -21 -41 3 -3 -4 -24 -16 -47 -12 -22 -22 -45 -23 -51 0 -5 -12 -35 -25
-65 -14 -30 -31 -76 -38 -101 -12 -44 -11 -49 17 -105 17 -33 35 -77 41 -99
15 -51 30 -70 63 -78 45 -12 53 17 38 138 -12 100 -12 103 9 124 l21 21 0 -25
c0 -28 49 -65 86 -65 48 0 55 18 69 185 4 39 11 88 18 110 6 22 12 45 13 50 1
6 3 12 4 15 1 3 4 19 6 35 3 17 10 45 15 63 6 18 12 39 13 45 9 42 20 67 28
67 6 0 8 9 5 20 -3 11 -2 20 2 20 4 0 7 9 8 19 1 13 -11 27 -33 40 -33 20 -34
20 -24 1z"/>
<path d="M3510 2955 c22 -24 30 -29 30 -22 0 8 -38 47 -45 47 -5 0 2 -11 15
-25z"/>
<path d="M2884 2946 c-11 -6 -19 -16 -17 -23 2 -6 -1 -14 -6 -18 -6 -3 -11
-17 -11 -31 0 -15 -6 -24 -16 -24 -9 0 -14 -6 -11 -13 3 -9 -5 -13 -28 -13
-19 0 -31 4 -28 9 3 5 -4 6 -15 3 -14 -5 -24 -1 -31 11 -9 17 -12 17 -56 1
-34 -13 -52 -15 -66 -8 -14 8 -19 7 -19 -1 0 -8 -4 -9 -13 0 -8 6 -17 8 -20 4
-4 -3 -7 -1 -7 5 0 19 -34 14 -57 -7 -27 -26 -59 -23 -72 6 -12 26 -31 31 -31
8 0 -8 -17 -30 -37 -50 l-38 -36 -8 25 c-11 32 -31 35 -22 4 5 -18 4 -20 -4
-7 -5 8 -12 27 -15 41 -6 37 -23 64 -48 82 -19 14 -24 13 -47 -3 -14 -10 -41
-23 -59 -29 -18 -6 -39 -18 -47 -26 -8 -8 -20 -17 -27 -19 -10 -4 -9 -8 2 -16
13 -9 12 -11 -4 -11 -20 0 -20 0 0 -15 17 -13 16 -14 -18 -8 -25 4 -38 2 -38
-5 0 -6 8 -9 18 -6 14 5 15 4 2 -5 -9 -6 -19 -6 -24 -1 -13 13 -37 0 -47 -27
-5 -13 -14 -21 -19 -18 -6 3 -13 -2 -17 -12 -4 -10 -18 -34 -33 -53 -41 -54
-53 -103 -45 -178 7 -63 28 -110 64 -138 7 -6 25 -35 40 -65 21 -44 31 -54 51
-54 14 0 28 -5 32 -11 8 -12 -25 -182 -40 -210 -9 -16 -12 -14 -29 14 -11 18
-23 29 -28 24 -4 -4 -5 1 -2 10 3 9 -1 22 -9 29 -13 11 -15 10 -13 -2 2 -7 -2
-24 -9 -35 -10 -19 -9 -23 8 -27 16 -4 18 -13 16 -71 -1 -36 1 -66 5 -66 4 0
11 -21 15 -47 3 -27 15 -66 25 -87 11 -22 19 -45 19 -52 0 -7 17 -32 38 -56
20 -25 46 -56 56 -70 11 -15 23 -25 27 -22 4 2 10 0 14 -6 3 -5 19 -10 35 -10
23 0 30 -6 39 -32 11 -32 54 -63 72 -52 5 3 9 0 9 -6 0 -6 5 -8 12 -4 8 5 9 0
5 -15 -3 -13 -3 -21 0 -18 2 3 18 1 35 -5 23 -8 36 -25 59 -73 16 -35 29 -72
29 -84 0 -23 16 -37 23 -19 7 21 17 4 10 -20 -3 -12 -9 -19 -14 -16 -5 3 -9 0
-9 -5 0 -6 5 -11 10 -11 6 0 10 -9 10 -20 0 -21 -19 -27 -36 -10 -7 7 -19 7
-35 2 -25 -10 -87 -5 -104 8 -19 14 -73 21 -80 11 -3 -6 -15 -11 -26 -11 -26
0 -25 30 2 37 18 5 17 7 -11 24 -17 11 -42 19 -56 19 -22 0 -26 4 -22 24 6 29
-16 61 -36 53 -15 -6 -40 16 -30 26 13 13 -25 55 -45 50 -24 -6 -36 13 -20 33
6 8 10 16 8 17 -56 40 -153 66 -236 63 -35 -1 -66 -6 -70 -10 -10 -10 -21
-139 -22 -252 -1 -86 0 -91 20 -90 29 1 37 -24 10 -31 -19 -5 -22 -12 -19 -57
2 -37 7 -51 18 -51 8 0 16 -10 18 -22 2 -16 -2 -23 -13 -23 -11 0 -15 -6 -11
-17 2 -10 7 -33 11 -51 4 -18 13 -32 21 -32 8 0 14 -9 14 -20 0 -11 -4 -20 -9
-20 -14 0 8 -73 26 -87 9 -7 17 -25 18 -41 4 -46 28 -87 53 -90 46 -7 292 100
292 127 0 4 18 16 40 26 28 13 37 22 30 29 -17 17 -11 36 10 36 11 0 20 -5 20
-10 0 -13 82 41 128 83 17 17 32 36 32 42 0 6 15 18 33 26 20 9 31 20 29 31
-3 19 14 33 23 18 8 -13 45 -13 45 0 0 6 -4 10 -10 10 -5 0 -10 5 -10 10 0 19
28 10 33 -10 5 -21 31 -27 42 -10 4 6 16 4 31 -6 18 -13 22 -20 14 -29 -9 -11
-6 -12 12 -8 13 4 26 11 30 17 5 7 8 4 8 -6 0 -10 5 -18 10 -18 6 0 10 9 10
20 0 11 7 20 15 20 12 0 13 -4 5 -19 -14 -28 -12 -36 5 -21 13 11 18 10 28 -2
18 -22 123 -99 133 -97 23 4 36 -2 31 -14 -6 -16 144 -109 171 -106 31 3 40
-1 44 -19 3 -11 48 -34 139 -68 177 -68 167 -66 178 -46 7 15 22 153 23 225 1
15 5 27 9 27 5 0 6 6 3 13 -3 8 -15 13 -27 13 -26 -1 -30 27 -4 32 9 2 17 -1
17 -7 0 -6 7 -8 15 -5 18 7 20 61 3 66 -10 4 -9 14 1 46 9 26 11 58 7 91 -4
33 -3 51 4 51 5 0 10 15 9 33 0 30 -1 30 -10 9 -11 -28 -44 -26 -44 3 0 13 8
21 24 23 20 3 22 8 17 34 -3 17 -6 41 -6 53 0 15 -7 25 -21 28 -25 7 -22 43 4
41 14 -2 17 7 17 46 0 39 -4 49 -20 53 -11 3 -20 14 -20 25 0 32 -23 43 -70
36 -61 -10 -165 -94 -116 -94 9 0 16 -7 16 -15 0 -17 -35 -21 -45 -5 -9 14
-45 -11 -45 -32 0 -9 5 -18 12 -20 17 -6 0 -28 -22 -28 -10 0 -20 5 -22 12 -3
8 -14 5 -36 -10 -42 -30 -75 -78 -76 -111 -1 -19 -7 -27 -24 -29 -13 -2 -26
-10 -28 -17 -3 -8 -11 -12 -18 -9 -8 3 -12 -4 -12 -18 1 -14 -6 -24 -17 -26
-15 -3 -18 1 -15 20 2 18 -5 26 -36 40 -29 14 -37 22 -32 35 4 10 4 14 0 10
-4 -4 -12 -2 -19 3 -8 6 -18 4 -31 -9 -17 -15 -54 -25 -129 -36 -5 -1 -14 1
-20 4 -5 3 -29 6 -52 7 -52 4 -66 11 -59 30 5 12 2 12 -15 3 -13 -6 -19 -7
-15 -1 10 16 -5 44 -20 38 -20 -8 -17 8 6 29 10 9 26 15 34 12 9 -4 18 -2 21
3 11 17 27 11 21 -7 -5 -13 0 -11 19 7 16 15 40 25 61 27 20 1 42 7 49 13 9 8
15 8 20 0 3 -5 11 -10 16 -10 6 0 8 4 5 9 -13 20 23 18 45 -2 13 -12 25 -21
26 -19 8 7 23 0 23 -10 0 -7 5 -20 10 -28 9 -13 11 -13 20 0 8 12 12 12 18 2
14 -20 34 11 27 40 -4 16 -1 29 9 37 9 8 16 20 16 28 0 9 6 13 15 9 8 -3 15 0
15 7 0 7 14 18 30 24 21 8 28 16 24 27 -3 9 -2 16 4 16 6 0 20 20 32 45 13 26
30 47 43 50 49 13 117 49 117 62 0 7 4 13 8 13 5 0 15 11 22 25 10 18 16 22
22 13 6 -10 8 -10 8 0 0 6 7 12 15 12 9 0 15 10 15 26 0 20 4 25 16 20 13 -5
15 -2 11 15 -4 13 5 36 26 65 22 31 31 56 32 84 0 22 3 40 8 40 13 0 -5 54
-26 78 -11 12 -16 22 -11 22 5 0 3 4 -4 9 -8 4 -15 24 -17 44 -2 20 -6 41 -10
47 -4 6 -9 27 -11 46 -2 20 -9 45 -15 55 -5 10 -7 19 -3 19 3 0 1 6 -5 14 -9
11 -8 15 6 20 15 6 15 8 3 16 -12 8 -12 10 -1 10 7 0 11 6 7 15 -3 8 0 15 6
15 6 0 5 6 -3 17 -12 15 -12 16 8 11 15 -4 32 1 50 15 l26 21 -27 11 c-24 10
-25 13 -12 24 13 11 16 11 16 -3 0 -9 5 -16 10 -16 6 0 10 4 10 8 0 5 9 19 19
31 18 20 34 89 28 121 -5 29 -29 80 -38 80 -5 0 -9 5 -9 10 0 6 -27 39 -60 73
-49 50 -63 59 -70 47 -7 -10 -10 -11 -10 -2 0 6 -11 12 -25 12 -13 0 -28 8
-34 18 -5 9 -13 17 -18 17 -4 0 -7 6 -5 13 2 6 -4 12 -13 12 -8 0 -14 6 -12
13 2 11 -25 17 -90 19 -13 0 -20 4 -17 9 3 5 -1 9 -10 9 -8 0 -20 2 -28 4 -7
2 -22 -1 -34 -8z m-234 -153 c83 -20 123 -47 114 -76 -5 -18 -4 -20 7 -9 17
16 29 15 29 -2 0 -8 -7 -17 -16 -20 -9 -4 -14 -13 -10 -21 4 -13 2 -13 -14 -5
-23 12 -35 30 -21 30 6 0 11 10 11 23 0 19 -5 22 -39 23 -35 0 -39 -2 -30 -17
12 -23 11 -29 -1 -29 -5 0 -10 5 -10 10 0 6 -9 19 -20 30 -14 14 -20 16 -20 6
0 -7 -11 -16 -25 -18 -16 -3 -24 -1 -23 6 2 6 0 13 -4 14 -20 6 -27 1 -21 -15
5 -15 3 -14 -10 2 -8 11 -13 24 -9 30 3 5 -2 4 -11 -4 -9 -7 -17 -22 -17 -32
0 -21 -30 -27 -31 -6 0 9 -2 9 -6 -1 -3 -7 -17 -18 -31 -23 -22 -8 -29 -6 -45
13 -13 16 -20 19 -24 11 -2 -7 -9 -13 -14 -13 -5 0 -18 -9 -28 -19 -15 -15
-16 -22 -7 -32 6 -8 7 -11 2 -6 -16 12 -26 8 -20 -8 4 -8 1 -15 -5 -15 -6 0
-11 5 -11 11 0 7 -8 18 -17 26 -10 8 -13 12 -7 9 7 -3 14 1 18 9 3 8 12 15 21
15 8 0 15 5 15 11 0 14 49 62 81 80 67 38 130 41 249 12z m503 -20 c-7 -2 -21
-2 -30 0 -10 3 -4 5 12 5 17 0 24 -2 18 -5z m44 -9 c-3 -3 -12 -4 -19 -1 -8 3
-5 6 6 6 11 1 17 -2 13 -5z m-367 -64 c0 -5 7 -10 16 -10 21 0 146 -74 189
-111 29 -26 111 -156 103 -164 -2 -2 -23 15 -48 37 -25 23 -62 52 -82 66 -20
13 -44 35 -53 48 -14 22 -44 36 -30 14 3 -5 1 -10 -5 -10 -6 0 -14 8 -17 17
-12 31 -46 63 -67 63 -16 0 -21 7 -22 30 -1 17 3 30 7 30 5 0 9 -4 9 -10z
m304 -20 c17 -35 7 -39 -20 -9 -15 17 -20 18 -29 6 -5 -7 -25 -17 -43 -20 -52
-10 -35 14 24 34 27 9 50 17 51 18 1 0 8 -12 17 -29z m60 14 c21 -8 20 -17 -3
-31 -16 -10 -20 -9 -24 13 -4 25 0 28 27 18z m-915 -72 c8 -14 4 -17 -25 -17
-37 0 -46 14 -14 22 11 3 17 10 13 16 -3 6 -1 7 5 3 7 -4 16 -15 21 -24z
m-247 -14 c-11 -11 -32 -3 -32 12 0 4 9 6 21 3 13 -4 17 -9 11 -15z m71 2 c16
0 18 -3 10 -11 -16 -16 -43 -4 -42 18 0 11 3 13 6 6 2 -7 14 -13 26 -13z
m1161 -44 c-43 -36 -85 -51 -95 -34 -4 6 -12 7 -18 4 -6 -4 -11 -5 -11 -2 0 3
18 15 40 26 21 11 44 29 50 41 7 11 14 18 17 15 9 -9 -27 -56 -50 -66 -15 -6
-17 -9 -6 -9 23 -1 69 37 80 68 10 24 11 25 21 7 8 -15 4 -23 -28 -50z m-1007
13 c-14 -22 -23 -24 -30 -6 -2 7 -10 1 -17 -15 -10 -22 -11 -30 0 -43 10 -13
9 -15 -8 -15 -12 0 -24 -4 -27 -10 -3 -5 -16 -10 -28 -11 -20 -1 -20 -1 3 -8
23 -6 21 -8 -25 -31 -27 -14 -51 -31 -53 -39 -3 -8 0 -11 7 -7 6 4 11 2 11 -4
0 -7 -7 -10 -15 -6 -10 3 -15 -1 -15 -11 0 -9 -3 -13 -7 -10 -8 9 27 87 39 87
5 0 6 4 3 10 -3 5 3 15 14 21 10 7 17 18 15 24 -3 7 13 28 35 47 22 19 38 38
35 40 -3 3 13 6 35 6 37 1 40 -1 28 -19z m870 -45 c-3 -3 -12 -4 -19 -1 -8 3
-5 6 6 6 11 1 17 -2 13 -5z m-417 -39 c0 -8 -2 -15 -4 -15 -2 0 -6 7 -10 15
-3 8 -1 15 4 15 6 0 10 -7 10 -15z m230 -35 c0 -5 -5 -10 -11 -10 -5 0 -7 5
-4 10 3 6 8 10 11 10 2 0 4 -4 4 -10z m-450 -26 c0 -2 -7 -4 -15 -4 -8 0 -15
4 -15 10 0 5 7 7 15 4 8 -4 15 -8 15 -10z m420 6 c0 -5 -4 -10 -10 -10 -5 0
-10 5 -10 10 0 6 5 10 10 10 6 0 10 -4 10 -10z m-360 -40 c0 -11 -2 -20 -4
-20 -2 0 -6 9 -9 20 -3 11 -1 20 4 20 5 0 9 -9 9 -20z m384 -1 c-6 -11 -24 -2
-24 11 0 5 7 7 15 4 8 -4 12 -10 9 -15z m36 11 c0 -5 -2 -10 -4 -10 -3 0 -8 5
-11 10 -3 6 -1 10 4 10 6 0 11 -4 11 -10z m70 -30 c0 -5 -5 -10 -11 -10 -5 0
-7 5 -4 10 3 6 8 10 11 10 2 0 4 -4 4 -10z m-207 -125 c-5 -30 -2 -36 21 -45
16 -6 26 -17 26 -29 0 -32 -18 -34 -34 -4 -8 15 -15 24 -16 19 0 -5 -6 -4 -12
2 -9 7 -17 6 -27 -5 -11 -12 -11 -14 0 -12 8 1 19 1 26 0 16 -1 77 -91 62 -91
-6 0 -9 -7 -5 -15 4 -13 2 -14 -14 -5 -11 6 -20 13 -20 16 0 3 5 2 10 -1 6 -3
10 -2 10 3 0 15 -45 49 -60 45 -9 -3 -8 0 3 7 9 6 17 16 17 22 0 7 -6 6 -15
-2 -16 -13 -28 -7 -77 41 -9 10 -36 21 -60 25 l-43 8 35 6 c19 3 41 2 48 -3 6
-5 12 -7 12 -3 0 3 16 -1 36 -9 31 -13 35 -13 25 -1 -7 8 -26 18 -42 21 -32 7
-41 38 -13 49 20 8 34 -1 34 -20 0 -21 9 -17 32 11 27 34 49 18 41 -30z m-153
15 c0 -5 -6 -10 -14 -10 -8 0 -18 5 -21 10 -3 6 3 10 14 10 12 0 21 -4 21 -10z
m-115 -30 c3 -5 1 -10 -4 -10 -6 0 -11 5 -11 10 0 6 2 10 4 10 3 0 8 -4 11
-10z m-35 -20 c-16 -11 -40 -13 -40 -5 0 8 44 24 50 18 2 -2 -2 -8 -10 -13z
m301 -178 c-9 -3 -8 -9 5 -23 9 -10 12 -19 6 -19 -6 0 -17 -3 -26 -6 -11 -4
-16 -1 -16 10 0 9 -7 16 -15 16 -8 0 -15 5 -15 11 0 5 5 7 10 4 6 -3 10 -2 10
4 0 6 7 8 15 5 8 -4 15 -1 15 6 0 6 5 8 12 4 9 -6 9 -9 -1 -12z m57 -27 c-3
-3 -9 2 -12 12 -6 14 -5 15 5 6 7 -7 10 -15 7 -18z m62 21 c0 -3 -4 -8 -10
-11 -5 -3 -10 -1 -10 4 0 6 5 11 10 11 6 0 10 -2 10 -4z m-450 -27 c0 -6 -4
-7 -10 -4 -5 3 -10 11 -10 16 0 6 5 7 10 4 6 -3 10 -11 10 -16z m190 1 c0 -5
-4 -10 -10 -10 -5 0 -10 5 -10 10 0 6 5 10 10 10 6 0 10 -4 10 -10z m-215 -20
c-3 -5 -11 -10 -16 -10 -6 0 -7 5 -4 10 3 6 11 10 16 10 6 0 7 -4 4 -10z m294
-32 l11 -32 -20 21 c-21 23 -26 43 -11 43 5 0 14 -14 20 -32z m118 -13 c3 -8
8 -13 12 -11 3 3 6 -13 6 -34 0 -21 3 -36 7 -34 5 3 8 -2 8 -10 0 -21 -9 -20
-36 5 l-23 22 -7 -27 c-4 -16 -11 -23 -18 -19 -6 4 -5 -1 3 -10 8 -11 21 -15
32 -12 20 7 24 -10 13 -52 -7 -26 -24 -31 -24 -8 0 8 5 15 10 15 6 0 10 5 10
10 0 6 -7 10 -15 10 -8 0 -15 5 -15 10 0 6 -4 10 -10 10 -5 0 -10 -7 -10 -16
0 -8 -4 -13 -9 -9 -6 3 -14 -2 -20 -12 -8 -16 -10 -14 -17 11 l-7 28 -22 -26
c-21 -25 -37 -26 -30 -3 2 7 6 26 9 42 6 28 5 29 -9 11 -12 -16 -17 -17 -30
-6 -8 7 -15 23 -15 37 0 22 1 23 16 9 8 -9 21 -16 27 -15 7 0 7 3 -2 6 -10 4
-11 7 -1 13 8 5 21 0 33 -11 22 -21 49 -27 29 -7 -18 18 -14 32 5 17 15 -12
16 -12 10 4 -4 11 -2 17 8 17 8 0 15 5 15 10 0 6 -4 10 -9 10 -17 0 -21 45 -5
57 13 10 23 9 46 -3 16 -8 32 -22 35 -29z m-507 9 c0 -7 -7 -14 -15 -18 -8 -3
-15 -4 -15 -2 0 3 -3 11 -6 20 -4 11 0 14 15 13 12 -1 21 -7 21 -13z m4 -42
c2 -4 -4 -9 -15 -9 -11 -1 -17 2 -14 8 7 11 22 12 29 1z m-214 -32 c0 -5 -5
-10 -11 -10 -5 0 -7 5 -4 10 3 6 8 10 11 10 2 0 4 -4 4 -10z m200 0 c0 -5 -5
-10 -11 -10 -5 0 -7 5 -4 10 3 6 8 10 11 10 2 0 4 -4 4 -10z m77 -15 c-7 -7
-15 -11 -19 -8 -5 2 -8 -8 -8 -24 0 -38 -10 -73 -21 -73 -5 0 -5 7 -2 17 4 11
3 14 -5 9 -7 -4 -12 -2 -12 4 0 6 7 13 15 16 8 4 15 11 15 16 0 6 -7 7 -16 4
-12 -5 -15 -2 -10 10 3 8 6 20 6 26 0 6 7 7 15 4 9 -3 18 1 21 9 3 7 12 11 19
8 11 -4 12 -8 2 -18z m81 -2 c-1 -16 0 -32 1 -38 6 -21 1 -56 -8 -51 -14 9
-19 69 -8 94 13 29 16 28 15 -5z m50 -15 c6 9 21 11 50 6 41 -6 42 -8 42 -45
0 -22 -4 -39 -9 -39 -5 0 -7 9 -4 20 4 16 2 19 -11 14 -9 -3 -16 -1 -16 5 0 6
-4 11 -10 11 -5 0 -10 -6 -10 -14 0 -9 -8 -12 -25 -8 -15 2 -25 0 -25 -7 0 -6
-3 -11 -8 -11 -4 0 -6 19 -4 41 3 29 7 37 13 28 7 -11 11 -12 17 -1z m-82 -22
c3 -13 0 -34 -6 -47 -11 -19 -10 -21 4 -16 20 8 28 -6 19 -30 -9 -21 -44 -24
-56 -5 -5 7 -12 10 -18 7 -5 -4 -9 -1 -9 4 0 14 27 14 35 1 3 -5 13 -6 22 -3
13 5 12 8 -7 15 -22 8 -22 9 -5 28 11 13 15 25 10 37 -7 16 -8 16 -12 1 -6
-23 -32 -31 -40 -12 -6 15 22 43 44 44 7 0 15 -11 19 -24z m427 -27 c-3 -12
-9 -17 -15 -11 -10 10 0 44 12 37 5 -3 6 -14 3 -26z m-236 -31 c-3 -7 -5 -2
-5 12 0 14 2 19 5 13 2 -7 2 -19 0 -25z m33 28 c0 -3 -4 -8 -10 -11 -5 -3 -10
-1 -10 4 0 6 5 11 10 11 6 0 10 -2 10 -4z m47 -48 c-3 -8 -6 -5 -6 6 -1 11 2
17 5 13 3 -3 4 -12 1 -19z m-197 -18 c0 -5 -2 -10 -4 -10 -3 0 -8 5 -11 10 -3
6 -1 10 4 10 6 0 11 -4 11 -10z m695 -225 c0 -10 -5 -20 -11 -22 -13 -4 -27
24 -18 38 9 15 29 4 29 -16z m55 -65 c0 -13 -7 -20 -20 -20 -19 0 -27 20 -13
33 13 14 33 6 33 -13z m-670 0 c0 -5 -2 -10 -4 -10 -3 0 -8 5 -11 10 -3 6 -1
10 4 10 6 0 11 -4 11 -10z m-992 -17 c5 -17 -26 -29 -40 -15 -6 6 -7 15 -3 22
9 14 37 9 43 -7z m142 -13 c0 -13 -7 -20 -20 -20 -19 0 -27 20 -13 33 13 14
33 6 33 -13z m1448 -49 c-5 -24 -38 -27 -38 -3 0 10 3 21 6 25 11 11 35 -5 32
-22z m-1520 -18 c5 -17 -26 -29 -40 -15 -6 6 -7 15 -3 22 9 14 37 9 43 -7z
m142 -14 c0 -23 -28 -26 -37 -3 -6 16 15 37 29 28 4 -3 8 -14 8 -25z m1158
-26 c5 -17 -26 -29 -40 -15 -6 6 -7 15 -3 22 9 14 37 9 43 -7z m141 3 c9 -10
8 -16 -4 -26 -19 -16 -41 1 -32 24 8 20 21 20 36 2z m154 -10 c7 -17 -18 -40
-33 -31 -5 3 -10 15 -10 26 0 23 35 27 43 5z m-1675 -19 c2 -12 -3 -17 -17
-17 -15 0 -21 6 -21 21 0 25 33 22 38 -4z m141 -1 c9 -10 8 -16 -4 -26 -19
-16 -41 1 -32 24 8 20 21 20 36 2z m149 -19 c4 -21 -25 -34 -40 -19 -8 8 -8
16 2 27 16 19 34 15 38 -8z m1160 -30 c4 -20 -25 -34 -40 -19 -15 15 -1 44 19
40 10 -2 19 -11 21 -21z m150 -10 c4 -20 -25 -34 -40 -19 -15 15 -1 44 19 40
10 -2 19 -11 21 -21z m-1535 -11 c7 -18 -1 -26 -25 -26 -18 0 -25 20 -11 33
11 12 31 8 36 -7z m144 -12 c8 -20 -17 -36 -34 -22 -10 8 -10 14 -2 24 15 18
28 18 36 -2z m142 -8 c8 -10 8 -16 -2 -24 -17 -14 -42 2 -34 22 8 20 21 20 36
2z m608 -18 c-3 -8 -6 -5 -6 6 -1 11 2 17 5 13 3 -3 4 -12 1 -19z m-60 -4 c8
-20 -8 -36 -26 -25 -15 10 -8 41 9 41 6 0 13 -7 17 -16z m173 -4 c0 -21 -24
-28 -35 -10 -8 14 3 30 21 30 8 0 14 -9 14 -20z m295 -1 c0 -7 -8 -15 -17 -17
-18 -3 -25 18 -11 32 10 10 28 1 28 -15z m155 -15 c0 -8 -8 -14 -18 -14 -25 0
-34 11 -21 26 13 15 39 7 39 -12z m145 -10 c0 -10 -8 -20 -17 -22 -18 -3 -26
27 -11 42 12 11 28 0 28 -20z m-1530 -4 c3 -5 -3 -10 -14 -10 -12 0 -21 5 -21
10 0 6 6 10 14 10 8 0 18 -4 21 -10z m142 -6 c-3 -3 -12 -4 -19 -1 -8 3 -5 6
6 6 11 1 17 -2 13 -5z m143 -4 c0 -5 -4 -10 -10 -10 -5 0 -10 5 -10 10 0 6 5
10 10 10 6 0 10 -4 10 -10z m84 -9 c3 -5 -1 -12 -10 -15 -20 -8 -29 -1 -19 13
8 13 22 14 29 2z m196 -6 c0 -8 -4 -15 -10 -15 -5 0 -10 7 -10 15 0 8 5 15 10
15 6 0 10 -7 10 -15z m735 4 c10 -15 -1 -23 -20 -15 -9 3 -13 10 -10 16 8 13
22 13 30 -1z m-1072 -5 c9 -10 -4 -34 -18 -34 -17 0 -28 17 -20 30 7 11 28 13
38 4z m782 -4 c3 -6 -1 -13 -10 -16 -19 -8 -30 0 -20 15 8 14 22 14 30 1z
m150 1 c3 -5 1 -13 -5 -16 -15 -9 -43 3 -35 15 8 13 32 13 40 1z m-1077 -18
c5 -17 -26 -29 -40 -15 -6 6 -7 15 -3 22 9 14 37 9 43 -7z m620 -7 c3 -13 -1
-17 -14 -14 -11 2 -20 11 -22 22 -3 13 1 17 14 14 11 -2 20 -11 22 -22z m117
-6 c-5 -8 -11 -8 -17 -2 -6 6 -7 16 -3 22 5 8 11 8 17 2 6 -6 7 -16 3 -22z
m46 15 c-1 -15 -24 -12 -29 3 -3 9 2 13 12 10 10 -1 17 -7 17 -13z m-942 -9
c9 -10 8 -16 -4 -26 -19 -16 -41 1 -32 24 8 20 21 20 36 2z m521 0 c0 -15 -24
-28 -34 -19 -13 14 -5 33 14 33 11 0 20 -6 20 -14z m1008 -4 c3 -9 -2 -13 -14
-10 -9 1 -19 9 -22 16 -3 9 2 13 14 10 9 -1 19 -9 22 -16z m-1151 -19 c3 -7
-5 -17 -17 -23 -16 -9 -22 -8 -27 6 -3 9 0 20 8 25 17 10 31 7 36 -8z m703 -4
c0 -25 -33 -22 -38 4 -2 12 3 17 17 17 15 0 21 -6 21 -21z m230 12 c0 -6 -5
-13 -10 -16 -15 -9 -43 3 -35 15 8 13 45 13 45 1z m370 -10 c0 -11 -5 -23 -11
-27 -15 -9 -33 12 -26 30 9 23 37 20 37 -3z m-1079 -34 c-5 -5 -17 -7 -26 -3
-14 5 -15 9 -5 21 10 12 16 13 27 4 9 -8 10 -16 4 -22z m846 17 c8 -20 -8 -36
-26 -25 -15 10 -8 41 9 41 6 0 13 -7 17 -16z m-1217 -9 c0 -9 -7 -18 -16 -22
-18 -7 -39 11 -30 26 11 17 46 13 46 -4z m620 5 c0 -5 -7 -10 -15 -10 -8 0
-15 5 -15 10 0 6 7 10 15 10 8 0 15 -4 15 -10z m370 -19 c0 -23 -9 -31 -26
-24 -14 5 -19 34 -8 46 11 10 34 -5 34 -22z m-1140 -11 c0 -13 -7 -20 -20 -20
-13 0 -20 7 -20 20 0 13 7 20 20 20 13 0 20 -7 20 -20z m910 0 c0 -21 -24 -28
-35 -10 -8 14 3 30 21 30 8 0 14 -9 14 -20z m-530 -4 c0 -8 -5 -18 -10 -21
-17 -11 -40 3 -34 20 8 19 44 20 44 1z m1138 -9 c2 -12 -3 -17 -17 -17 -15 0
-21 6 -21 21 0 25 33 22 38 -4z m-230 -10 c4 -20 -25 -34 -40 -19 -15 15 -1
44 19 40 10 -2 19 -11 21 -21z m-1060 -14 c-5 -26 -38 -29 -38 -4 0 15 6 21
21 21 14 0 19 -5 17 -17z m822 2 c10 -12 9 -16 -5 -21 -19 -8 -40 9 -31 25 10
15 21 14 36 -4z m-587 -10 c1 -5 -6 -11 -15 -13 -11 -2 -18 3 -18 13 0 17 30
18 33 0z m-383 -15 c0 -13 -7 -20 -20 -20 -19 0 -27 20 -13 33 13 14 33 6 33
-13z m1347 9 c14 -14 6 -39 -12 -39 -18 0 -28 17 -21 35 6 18 18 19 33 4z
m-1489 -26 c5 -17 -26 -29 -40 -15 -6 6 -7 15 -3 22 9 14 37 9 43 -7z m1030 0
c2 -8 -5 -13 -17 -13 -12 0 -21 6 -21 16 0 18 31 15 38 -3z m227 -3 c0 -22
-29 -18 -33 3 -3 14 1 18 15 15 10 -2 18 -10 18 -18z m-877 -2 c-7 -19 -38
-22 -38 -4 0 10 9 16 21 16 12 0 19 -5 17 -12z m1026 -39 c-7 -13 -31 -11 -40
2 -9 16 18 30 33 17 7 -6 10 -14 7 -19z m-1176 4 c-5 -26 -38 -29 -38 -4 0 15
6 21 21 21 14 0 19 -5 17 -17z m238 6 c9 -16 -12 -33 -31 -25 -14 5 -15 9 -5
21 15 18 26 19 36 4z m702 -12 c2 -10 -3 -17 -12 -17 -18 0 -29 16 -21 31 9
14 29 6 33 -14z m-1093 -18 c0 -7 -8 -15 -17 -17 -18 -3 -25 18 -11 32 10 10
28 1 28 -15z m1479 -4 c3 -9 -1 -18 -10 -22 -19 -7 -39 11 -30 26 10 16 33 13
40 -4z m-239 -15 c0 -22 -29 -18 -33 3 -3 14 1 18 15 15 10 -2 18 -10 18 -18z
m-995 1 c0 -5 -7 -12 -16 -15 -22 -9 -24 -8 -24 9 0 8 9 15 20 15 11 0 20 -4
20 -9z m-152 -33 c-7 -19 -38 -22 -38 -4 0 10 9 16 21 16 12 0 19 -5 17 -12z
m1056 6 c22 -9 20 -24 -3 -24 -21 0 -34 13 -24 24 8 7 8 7 27 0z m244 -12 c3
-9 -3 -13 -19 -10 -12 1 -24 9 -27 16 -3 9 3 13 19 10 12 -1 24 -9 27 -16z
m-1448 -17 c0 -8 -9 -15 -20 -15 -11 0 -20 7 -20 15 0 8 9 15 20 15 11 0 20
-7 20 -15z m1598 -12 c5 -17 -26 -29 -40 -15 -6 6 -7 15 -3 22 9 14 37 9 43
-7z m-1358 -8 c0 -21 -30 -31 -40 -14 -11 17 -3 29 21 29 10 0 19 -7 19 -15z
m1120 0 c0 -8 -9 -15 -20 -15 -11 0 -20 7 -20 15 0 8 9 15 20 15 11 0 20 -7
20 -15z m-1275 -36 c0 -7 -8 -15 -17 -17 -18 -3 -25 18 -11 32 10 10 28 1 28
-15z m1425 1 c0 -14 -15 -19 -29 -10 -17 10 -5 31 14 23 8 -3 15 -9 15 -13z
m-92 -43 c2 -10 -3 -17 -12 -17 -18 0 -29 16 -21 31 9 14 29 6 33 -14z m-1245
-2 c1 -5 -6 -11 -15 -13 -11 -2 -18 3 -18 13 0 17 30 18 33 0z m-145 -27 c-7
-19 -38 -22 -38 -4 0 10 9 16 21 16 12 0 19 -5 17 -12z m1542 -14 c0 -8 -9
-14 -20 -14 -19 0 -27 19 -14 33 10 9 34 -4 34 -19z"/>
<path d="M2421 2713 c-18 -19 -10 -25 12 -8 10 7 15 15 10 18 -4 3 -14 -2 -22
-10z"/>
<path d="M2740 2200 c0 -5 5 -10 10 -10 6 0 10 5 10 10 0 6 -4 10 -10 10 -5 0
-10 -4 -10 -10z"/>
<path d="M2845 1920 c3 -5 8 -10 11 -10 2 0 4 5 4 10 0 6 -5 10 -11 10 -5 0
-7 -4 -4 -10z"/>
<path d="M3620 2821 c0 -5 5 -13 10 -16 6 -3 10 -2 10 4 0 5 -4 13 -10 16 -5
3 -10 2 -10 -4z"/>
<path d="M5100 1718 c-8 -13 -15 -31 -16 -40 -1 -10 -6 -23 -11 -30 -5 -7 -11
-31 -12 -53 -2 -22 -7 -42 -12 -45 -9 -6 -5 -42 6 -59 3 -5 -7 -19 -21 -30
-23 -18 -24 -21 -8 -21 16 0 17 -2 4 -11 -12 -8 -12 -12 -2 -16 10 -4 10 -8 1
-19 -6 -8 -9 -23 -6 -34 3 -11 2 -22 -3 -25 -4 -2 -6 -19 -4 -36 3 -21 -2 -36
-11 -43 -17 -12 -20 -36 -9 -78 4 -18 2 -28 -5 -29 -6 -1 -17 -2 -23 -3 -8 0
-14 -19 -16 -44 -2 -23 -7 -40 -13 -37 -5 4 -9 -1 -9 -10 0 -9 5 -13 10 -10 6
3 10 1 10 -5 0 -6 -7 -13 -15 -16 -16 -7 -16 -34 0 -47 6 -4 0 -16 -15 -29
-16 -14 -19 -19 -7 -15 9 4 17 2 17 -3 0 -6 -6 -10 -14 -10 -16 0 -29 -27 -21
-41 4 -5 -2 -6 -11 -2 -12 4 -15 3 -10 -6 4 -6 3 -17 -2 -24 -14 -18 -22 -57
-11 -57 9 0 4 -104 -6 -121 -4 -5 -1 -9 4 -9 6 0 11 -7 11 -15 0 -8 7 -15 16
-15 8 0 13 -4 9 -9 -3 -5 -1 -12 5 -16 16 -10 12 -21 -12 -33 -18 -8 -19 -11
-5 -11 13 -1 17 -10 17 -37 0 -38 -20 -63 -51 -64 -23 0 -54 -49 -40 -63 7 -7
7 -14 0 -24 -9 -10 -8 -13 5 -13 9 0 16 -5 16 -11 0 -6 -6 -9 -13 -6 -8 3 -20
1 -28 -4 -12 -7 -12 -9 0 -9 11 0 10 -3 -3 -13 -18 -13 -25 -74 -11 -96 9 -16
-1 -13 -18 3 -22 22 -59 9 -52 -18 5 -15 4 -17 -3 -7 -8 11 -13 10 -30 -7 -11
-11 -23 -18 -26 -14 -3 3 -6 -2 -6 -12 0 -9 4 -15 9 -12 5 3 11 -1 15 -9 3 -8
2 -14 -2 -14 -4 1 -23 1 -42 0 -34 -2 -35 -2 -10 -13 l25 -11 -23 -5 c-15 -2
-22 -9 -18 -17 3 -8 1 -17 -4 -20 -6 -4 -10 -1 -10 4 0 6 -7 11 -15 11 -18 0
-20 -16 -2 -24 6 -2 3 -4 -8 -3 -11 2 -25 6 -31 10 -18 11 -63 4 -68 -10 -3
-7 -2 -12 2 -12 4 1 14 1 22 0 13 -1 13 -2 0 -11 -17 -11 -51 -3 -62 14 -11
17 -30 -7 -22 -27 6 -15 39 -17 365 -17 l359 0 0 870 c0 479 -1 870 -3 870 -1
0 -9 -10 -17 -22z m-150 -1138 c0 -5 -4 -10 -10 -10 -5 0 -10 5 -10 10 0 6 5
10 10 10 6 0 10 -4 10 -10z m-120 -164 c0 -3 -4 -8 -10 -11 -5 -3 -10 -1 -10
4 0 6 5 11 10 11 6 0 10 -2 10 -4z"/>
<path d="M2480 990 c-9 -6 -10 -10 -3 -10 6 0 15 5 18 10 8 12 4 12 -15 0z"/>
<path d="M2495 939 c-11 -17 1 -21 15 -4 8 9 8 15 2 15 -6 0 -14 -5 -17 -11z"/>
<path d="M2578 887 c-3 -19 -2 -25 4 -19 6 6 8 18 6 28 -3 14 -5 12 -10 -9z"/>
<path d="M3 855 c0 -22 2 -30 4 -17 2 12 2 30 0 40 -3 9 -5 -1 -4 -23z"/>
<path d="M10 791 c-6 -13 -10 -159 -10 -405 l0 -386 765 0 765 0 0 63 c0 34
-7 120 -15 192 -12 105 -23 220 -28 290 0 6 3 34 7 64 6 47 5 53 -8 42 -12
-10 -16 -9 -24 6 -8 14 -10 10 -7 -19 2 -21 6 -43 10 -50 4 -7 0 -5 -8 5 -20
24 -24 22 -31 -22 -5 -34 -9 -38 -28 -33 -19 5 -20 6 -4 12 34 12 20 23 -31
25 -50 2 -51 2 -40 -22 5 -12 14 -23 19 -23 14 0 9 -17 -6 -23 -10 -4 -13 -1
-9 9 3 9 -1 14 -11 14 -9 0 -21 10 -26 23 -8 21 -15 10 -11 -21 3 -18 -22 -39
-50 -44 -21 -4 -22 -5 -6 -13 13 -5 25 -1 42 15 14 13 28 20 32 17 3 -4 -2
-13 -12 -21 -10 -7 -15 -17 -12 -22 7 -12 -38 -13 -49 -2 -11 12 -21 10 -38
-8 -10 -10 -16 -11 -16 -4 0 7 -7 10 -17 6 -15 -5 -14 -3 2 10 11 8 19 20 18
25 -2 5 2 9 7 9 6 0 10 5 10 12 0 6 -3 8 -7 5 -3 -4 -12 -2 -20 5 -11 9 -15 7
-20 -10 -6 -26 -20 -29 -26 -4 -3 11 -5 7 -6 -10 -1 -33 -20 -47 -28 -20 -3
13 -11 18 -19 15 -19 -7 -18 -23 1 -23 14 0 13 -3 -1 -25 -15 -23 -18 -24 -29
-9 -8 12 -14 14 -19 6 -4 -7 -12 -12 -18 -12 -7 0 -7 5 1 14 9 10 8 15 -3 19
-17 7 -30 -8 -21 -23 3 -5 3 -10 -2 -11 -4 0 -16 -2 -26 -4 -10 -2 -21 3 -24
11 -3 8 -9 11 -14 8 -5 -3 -9 4 -9 16 0 17 -4 19 -27 14 -16 -4 -30 -8 -32
-10 -2 -2 -10 1 -18 8 -11 9 -13 8 -11 -2 2 -7 -3 -15 -11 -17 -8 -4 -12 0 -9
8 3 8 -2 19 -11 26 -14 11 -13 12 7 13 20 0 21 2 10 20 -7 11 -16 20 -20 20
-4 0 -10 -9 -13 -20 -9 -29 -27 -25 -19 5 5 19 2 25 -10 25 -9 0 -16 -8 -16
-18 0 -10 -7 -27 -15 -38 -13 -16 -14 -16 -9 -1 4 11 1 17 -10 17 -9 0 -16 8
-16 18 0 20 -29 64 -30 45 0 -6 4 -14 9 -17 11 -7 2 -46 -10 -46 -5 0 -9 5 -9
11 0 5 -5 7 -12 3 -8 -5 -9 -2 -5 9 3 9 2 19 -3 22 -6 4 -10 -1 -10 -9 0 -18
-8 -20 -28 -7 -11 6 -10 10 5 15 17 7 17 8 0 17 -9 6 -22 7 -29 3 -8 -5 -9 -2
-5 9 3 10 2 17 -3 17 -6 0 -10 -12 -10 -26 0 -14 -4 -23 -9 -19 -6 3 -8 14 -6
25 2 11 0 22 -4 25 -5 2 -12 -10 -15 -28 -7 -32 -7 -32 -24 -12 -16 19 -58 24
-47 5 6 -10 -36 0 -52 13 -15 11 -18 31 -3 22 5 -3 7 0 4 9 -6 16 -30 11 -54
-13 -13 -13 -15 -13 -18 2 -4 21 -34 26 -49 8 -10 -14 -14 -12 -32 9 -11 14
-20 31 -21 38 0 11 -14 16 -34 13 -5 -1 -6 4 -3 11 5 15 -30 64 -39 55 -3 -3
0 -15 6 -27 6 -12 9 -24 6 -27 -3 -3 -8 2 -12 11 -3 9 -12 16 -20 16 -7 0 -21
13 -30 29 -10 17 -22 27 -28 24 -6 -4 -5 1 3 10 12 15 11 17 -8 17 -12 0 -19
5 -16 10 3 6 4 10 1 10 -3 0 -10 -9 -16 -19z m600 -291 c0 -5 -4 -10 -10 -10
-5 0 -10 5 -10 10 0 6 5 10 10 10 6 0 10 -4 10 -10z m755 -19 c-3 -6 -11 -11
-17 -11 -6 0 -6 6 2 15 14 17 26 13 15 -4z m15 -31 c0 -5 -2 -10 -4 -10 -3 0
-8 5 -11 10 -3 6 -1 10 4 10 6 0 11 -4 11 -10z"/>
<path d="M100 780 c-8 -5 -18 -6 -23 -3 -5 3 -4 -5 3 -17 9 -16 14 -19 20 -10
4 7 13 16 20 20 7 4 8 10 3 13 -5 3 -15 2 -23 -3z"/>
<path d="M310 752 c0 -28 11 -34 26 -14 14 19 10 32 -12 32 -8 0 -14 -8 -14
-18z"/>
<path d="M192 738 c-7 -7 -12 -16 -12 -22 0 -5 6 -2 13 8 12 17 14 17 27 1 12
-14 12 -18 0 -25 -8 -5 -12 -11 -9 -14 3 -3 14 0 24 7 17 13 17 14 -1 35 -21
25 -26 26 -42 10z"/>
<path d="M1420 700 c0 -5 5 -10 11 -10 5 0 7 5 4 10 -3 6 -8 10 -11 10 -2 0
-4 -4 -4 -10z"/>
<path d="M1496 695 c-9 -26 -7 -32 5 -12 6 10 9 21 6 23 -2 3 -7 -2 -11 -11z"/>
<path d="M355 690 c-3 -5 -1 -10 4 -10 6 0 11 5 11 10 0 6 -2 10 -4 10 -3 0
-8 -4 -11 -10z"/>
<path d="M316 681 c-4 -7 -5 -15 -2 -18 9 -9 19 4 14 18 -4 11 -6 11 -12 0z"/>
<path d="M216 657 c3 -10 9 -15 12 -12 3 3 0 11 -7 18 -10 9 -11 8 -5 -6z"/>
<path d="M1370 609 c0 -6 25 -19 35 -19 1 0 5 6 8 14 4 10 -2 13 -19 12 -13 0
-24 -4 -24 -7z"/>
<path d="M475 600 c-3 -5 -1 -10 4 -10 6 0 11 5 11 10 0 6 -2 10 -4 10 -3 0
-8 -4 -11 -10z"/>
<path d="M1230 540 c0 -5 5 -10 10 -10 6 0 10 5 10 10 0 6 -4 10 -10 10 -5 0
-10 -4 -10 -10z"/>
<path d="M3680 356 c0 -9 5 -16 10 -16 6 0 10 4 10 9 0 6 -4 13 -10 16 -5 3
-10 -1 -10 -9z"/>
<path d="M3645 340 c3 -5 10 -10 16 -10 5 0 9 5 9 10 0 6 -7 10 -16 10 -8 0
-12 -4 -9 -10z"/>
<path d="M3680 300 c10 -6 11 -10 3 -10 -7 0 -13 -4 -13 -10 0 -15 27 -12 33
4 3 8 -1 17 -9 20 -24 9 -31 7 -14 -4z"/>
<path d="M3637 289 c7 -7 15 -10 18 -7 3 3 -2 9 -12 12 -14 6 -15 5 -6 -5z"/>
<path d="M3660 240 c0 -5 -7 -10 -15 -10 -9 0 -15 -9 -16 -22 0 -13 -2 -41 -4
-63 -3 -26 -1 -33 4 -21 7 18 8 18 14 2 10 -24 9 -26 -7 -26 -14 0 -36 -49
-36 -81 0 -18 11 -19 146 -19 130 0 145 2 134 15 -7 9 -10 18 -7 22 4 3 2 14
-4 25 -14 25 -2 43 19 26 13 -11 14 -11 10 2 -2 8 -14 16 -25 18 -16 2 -20 -2
-19 -24 0 -15 -5 -29 -12 -31 -8 -3 -10 1 -5 13 5 13 3 16 -9 11 -11 -4 -18 1
-21 14 -3 10 -1 19 4 19 5 0 9 5 9 11 0 6 -7 8 -16 5 -11 -4 -22 1 -31 14 -8
11 -20 20 -28 20 -7 0 -26 5 -42 11 l-28 10 25 20 c24 19 25 20 6 34 -23 17
-46 20 -46 5z m110 -110 c0 -5 0 -12 0 -15 0 -14 -13 -8 -16 8 -1 9 2 17 7 17
5 0 9 -4 9 -10z m90 -100 c0 -5 -5 -10 -11 -10 -5 0 -7 5 -4 10 3 6 8 10 11
10 2 0 4 -4 4 -10z"/>
<path d="M4575 200 c-3 -5 -1 -19 5 -29 11 -22 35 -19 45 6 9 25 -36 46 -50
23z"/>
<path d="M4540 156 c0 -2 7 -7 16 -10 8 -3 12 -2 9 4 -6 10 -25 14 -25 6z"/>
<path d="M3922 80 c-14 -23 -5 -32 19 -17 22 14 24 23 6 30 -7 3 -18 -3 -25
-13z"/>
<path d="M3995 61 c-3 -5 -1 -12 5 -16 5 -3 10 1 10 9 0 18 -6 21 -15 7z"/>
<path d="M3899 28 c4 -12 14 -24 21 -26 7 -3 10 0 6 7 -4 6 -2 11 3 11 6 0 11
-4 11 -10 0 -5 4 -10 8 -10 4 0 8 9 8 20 0 13 -5 19 -14 15 -7 -3 -22 0 -32 5
-17 9 -19 8 -11 -12z"/>
<path d="M4110 27 c0 -9 4 -18 9 -21 5 -4 8 1 7 9 -3 21 -16 31 -16 12z"/>
<path d="M4305 10 c-18 -8 -17 -9 8 -9 15 -1 27 4 27 9 0 12 -8 12 -35 0z"/>
</g>
</svg>
